<svg xmlns="http://www.w3.org/2000/svg" version="1.1" viewBox="244.78 376.31 417.2 367.55">
<g id="#eae7e1ff">
</g>
<g id="#010101ff">
<path fill="#010101" opacity="1.00" d=" M 268.38 389.26 C 279.07 381.07 292.43 376.25 305.95 376.38 C 400.62 376.37 495.30 376.37 589.97 376.31 C 606.62 376.17 623.18 383.31 634.70 395.28 C 644.55 406.02 650.86 420.29 650.87 434.98 C 650.86 489.31 650.87 543.64 650.86 597.97 C 651.12 606.19 650.27 614.54 647.20 622.23 C 642.66 634.32 633.52 644.00 623.38 651.70 C 634.10 665.59 645.09 679.29 655.80 693.18 C 661.17 700.26 663.19 709.53 661.27 718.20 C 659.03 727.45 652.85 735.81 644.30 740.14 C 635.56 744.80 624.44 745.23 615.62 740.53 C 608.67 736.97 604.35 730.21 599.75 724.20 C 587.37 707.35 574.44 690.93 561.32 674.67 C 558.43 671.24 555.49 667.86 552.37 664.64 C 549.06 661.22 545.05 658.58 541.77 655.12 C 537.28 649.77 533.71 643.15 534.12 635.95 C 533.85 630.42 536.82 625.39 540.56 621.55 C 544.79 617.38 549.41 613.45 554.96 611.15 C 552.49 606.63 548.97 602.80 545.01 599.54 C 540.86 605.27 537.98 611.74 534.97 618.10 C 529.89 616.49 525.12 614.11 520.29 611.89 C 523.19 604.57 527.59 597.97 531.16 590.97 C 525.63 588.66 519.88 586.88 514.05 585.49 C 511.81 593.08 509.50 600.64 507.14 608.19 C 501.61 607.34 496.24 605.75 490.94 603.99 C 492.81 596.44 495.47 589.11 497.39 581.57 C 492.64 580.01 487.75 578.90 482.85 577.96 C 480.00 585.12 478.51 592.77 475.24 599.76 C 470.00 598.51 464.77 597.08 459.84 594.90 C 459.19 593.40 460.35 591.82 460.61 590.35 C 462.53 584.55 464.72 578.85 466.52 573.01 C 461.78 571.26 457.06 569.43 452.19 568.06 C 449.73 575.18 446.51 581.99 443.72 588.98 C 438.24 587.45 432.89 585.43 427.79 582.90 C 430.03 575.38 433.93 568.50 436.55 561.11 C 432.29 559.08 428.00 557.12 423.68 555.22 C 420.00 561.89 416.94 568.89 412.97 575.40 C 407.78 573.54 402.91 570.91 398.23 568.03 C 401.17 560.98 405.31 554.52 408.56 547.61 C 404.44 545.10 400.26 542.68 396.08 540.27 C 391.34 546.14 387.82 552.87 383.18 558.81 C 378.07 556.19 373.39 552.78 369.10 548.97 C 372.90 542.52 377.86 536.88 381.95 530.63 C 378.28 527.73 374.88 524.44 370.89 521.97 C 365.29 527.00 361.03 533.41 355.06 538.07 C 350.82 534.65 346.98 530.77 343.16 526.91 C 347.80 520.75 354.19 516.22 359.54 510.72 C 356.13 507.07 352.85 503.30 349.60 499.52 C 343.17 503.68 337.59 509.01 331.16 513.15 C 327.14 509.34 323.69 504.94 320.81 500.23 C 327.22 495.40 333.50 490.40 340.06 485.77 C 337.45 481.92 334.69 478.18 331.80 474.53 C 325.19 478.36 318.70 482.40 311.97 486.01 C 308.77 481.54 305.67 476.91 303.60 471.81 C 304.04 470.55 305.56 470.20 306.54 469.46 C 312.46 466.24 318.19 462.70 324.20 459.66 C 322.17 455.42 320.24 451.15 318.22 446.91 C 311.58 449.90 304.98 453.15 297.99 455.24 L 297.03 455.05 C 294.63 450.58 293.27 445.63 291.50 440.89 C 298.13 436.95 305.46 434.44 312.32 430.94 C 308.15 419.15 305.64 406.78 305.34 394.26 C 291.68 394.23 278.21 401.14 270.24 412.24 C 265.13 419.45 262.59 428.31 262.52 437.11 C 262.38 489.41 262.55 541.71 262.52 594.01 C 262.49 600.66 262.06 607.46 264.03 613.91 C 267.54 627.56 278.30 638.92 291.52 643.62 C 301.96 647.33 313.19 645.15 323.99 645.71 C 327.74 646.01 331.49 649.18 331.55 653.12 C 332.01 673.39 331.20 693.68 332.23 713.93 C 353.69 692.82 374.93 671.49 396.20 650.19 C 398.40 648.14 400.61 645.28 404.00 645.74 C 443.49 645.74 482.98 645.77 522.47 645.72 C 524.54 650.60 526.55 655.63 530.08 659.68 C 531.06 660.86 532.04 662.05 533.04 663.25 C 513.71 663.98 494.34 663.18 474.99 663.52 C 452.94 663.26 430.87 663.64 408.83 663.10 C 396.74 674.22 385.60 686.31 373.93 697.86 C 359.34 712.31 345.24 727.25 330.35 741.40 C 327.72 744.19 323.53 744.16 320.05 743.47 C 316.96 742.35 314.49 739.24 314.44 735.91 C 314.27 711.70 314.61 687.49 314.31 663.29 C 302.66 663.93 290.54 663.13 279.88 657.98 C 259.13 648.73 244.94 626.67 244.87 603.99 C 244.85 552.00 244.91 500.00 244.78 448.01 C 244.91 441.27 244.43 434.49 245.47 427.80 C 247.95 412.73 255.99 398.37 268.38 389.26 M 323.01 394.22 C 323.57 404.23 325.51 414.13 327.91 423.84 C 331.94 423.68 335.98 423.61 340.01 423.58 C 391.05 423.64 442.08 423.57 493.11 423.62 C 494.11 423.40 496.51 423.95 496.23 422.16 C 496.29 412.84 496.48 403.50 496.08 394.19 C 438.39 394.15 380.70 394.06 323.01 394.22 M 513.46 394.22 C 513.30 403.99 513.35 413.78 513.44 423.55 C 552.61 423.61 591.79 423.75 630.96 423.50 C 626.49 406.81 610.30 394.34 593.02 394.25 C 566.50 394.14 539.98 394.12 513.46 394.22 M 335.13 440.78 C 339.53 451.19 344.52 461.52 351.48 470.48 C 371.96 471.01 392.51 470.48 413.02 470.61 C 472.35 470.60 531.69 470.64 591.02 470.58 C 605.08 470.45 619.18 470.83 633.22 470.29 C 633.18 460.49 633.48 450.69 633.14 440.91 C 533.81 440.71 434.47 440.98 335.13 440.78 M 363.56 487.70 C 370.95 497.15 379.55 505.65 388.93 513.12 C 390.82 514.45 392.46 516.71 394.95 516.77 C 444.64 516.67 494.33 516.82 544.03 516.81 C 545.24 516.70 547.26 517.02 547.14 515.16 C 547.05 506.06 547.36 496.95 546.89 487.87 C 537.60 487.29 528.27 487.75 518.97 487.61 C 467.17 487.73 415.36 487.48 363.56 487.70 M 563.73 487.69 C 563.64 497.38 563.49 507.08 563.86 516.76 C 585.89 516.76 607.93 516.72 629.97 516.75 C 631.12 516.74 633.40 516.98 633.15 515.10 C 633.32 505.99 633.25 496.87 633.14 487.76 C 610.01 487.48 586.86 487.51 563.73 487.69 M 419.47 533.95 C 425.08 537.49 431.29 539.94 437.24 542.85 C 455.19 551.58 474.55 556.78 493.59 562.52 C 498.31 563.74 503.24 563.05 508.06 563.28 C 549.75 563.37 591.45 563.50 633.14 563.26 C 633.26 553.50 633.28 543.74 633.07 533.98 C 610.39 533.59 587.69 533.96 565.00 533.80 C 516.49 533.86 467.97 533.64 419.47 533.95 M 548.74 580.57 C 550.45 582.15 552.49 583.30 554.38 584.66 C 559.74 588.78 563.97 594.19 567.35 600.02 C 572.39 598.54 577.75 596.47 583.04 598.10 C 587.95 599.65 591.01 604.09 593.78 608.15 C 600.22 617.69 606.74 627.19 613.17 636.74 C 620.60 633.00 625.91 625.95 629.51 618.61 C 635.29 606.76 632.79 593.26 633.15 580.59 C 605.02 580.36 576.87 580.58 548.74 580.57 M 570.87 617.07 C 571.21 618.28 571.64 619.52 572.51 620.49 C 577.06 626.54 582.70 631.73 586.88 638.05 C 584.51 641.98 580.39 644.17 576.89 646.92 C 575.09 648.32 573.17 649.56 571.12 650.57 C 564.50 645.73 559.68 638.91 554.07 633.12 C 551.10 634.37 551.00 638.80 551.52 641.59 C 553.47 645.64 557.10 648.57 560.12 651.83 C 563.97 655.52 567.47 659.66 571.91 662.70 C 577.16 659.53 581.76 655.44 586.62 651.71 C 590.34 648.61 594.41 645.86 597.59 642.16 C 591.63 633.22 586.62 623.45 579.03 615.75 C 576.24 615.66 573.44 615.95 570.87 617.07 M 624.49 697.73 C 618.08 700.11 613.96 707.26 614.70 713.99 C 615.71 721.94 624.14 727.74 631.95 726.31 C 639.47 725.23 645.49 717.68 644.28 710.06 C 643.41 701.03 633.01 694.28 624.49 697.73 Z"/>
</g>
<g id="#e6dacbff">
</g>
<g id="#c57351ff">
<path fill="#c57351" opacity="1.00" d=" M 323.01 394.22 C 380.70 394.06 438.39 394.15 496.08 394.19 C 496.48 403.50 496.29 412.84 496.23 422.16 C 496.51 423.95 494.11 423.40 493.11 423.62 C 442.08 423.57 391.05 423.64 340.01 423.58 C 335.98 423.61 331.94 423.68 327.91 423.84 C 325.51 414.13 323.57 404.23 323.01 394.22 Z"/>
<path fill="#c57351" opacity="1.00" d=" M 513.46 394.22 C 539.98 394.12 566.50 394.14 593.02 394.25 C 610.30 394.34 626.49 406.81 630.96 423.50 C 591.79 423.75 552.61 423.61 513.44 423.55 C 513.35 413.78 513.30 403.99 513.46 394.22 Z"/>
<path fill="#c57351" opacity="1.00" d=" M 335.13 440.78 C 434.47 440.98 533.81 440.71 633.14 440.91 C 633.48 450.69 633.18 460.49 633.22 470.29 C 619.18 470.83 605.08 470.45 591.02 470.58 C 531.69 470.64 472.35 470.60 413.02 470.61 C 392.51 470.48 371.96 471.01 351.48 470.48 C 344.52 461.52 339.53 451.19 335.13 440.78 Z"/>
</g>
<g id="#557a79ff">
<path fill="#557a79" opacity="1.00" d=" M 363.56 487.70 C 415.36 487.48 467.17 487.73 518.97 487.61 C 528.27 487.75 537.60 487.29 546.89 487.87 C 547.36 496.95 547.05 506.06 547.14 515.16 C 547.26 517.02 545.24 516.70 544.03 516.81 C 494.33 516.82 444.64 516.67 394.95 516.77 C 392.46 516.71 390.82 514.45 388.93 513.12 C 379.55 505.65 370.95 497.15 363.56 487.70 Z"/>
<path fill="#557a79" opacity="1.00" d=" M 563.73 487.69 C 586.86 487.51 610.01 487.48 633.14 487.76 C 633.25 496.87 633.32 505.99 633.15 515.10 C 633.40 516.98 631.12 516.74 629.97 516.75 C 607.93 516.72 585.89 516.76 563.86 516.76 C 563.49 507.08 563.64 497.38 563.73 487.69 Z"/>
<path fill="#557a79" opacity="1.00" d=" M 419.47 533.95 C 467.97 533.64 516.49 533.86 565.00 533.80 C 587.69 533.96 610.39 533.59 633.07 533.98 C 633.28 543.74 633.26 553.50 633.14 563.26 C 591.45 563.50 549.75 563.37 508.06 563.28 C 503.24 563.05 498.31 563.74 493.59 562.52 C 474.55 556.78 455.19 551.58 437.24 542.85 C 431.29 539.94 425.08 537.49 419.47 533.95 Z"/>
<path fill="#557a79" opacity="1.00" d=" M 548.74 580.57 C 576.87 580.58 605.02 580.36 633.15 580.59 C 632.79 593.26 635.29 606.76 629.51 618.61 C 625.91 625.95 620.60 633.00 613.17 636.74 C 606.74 627.19 600.22 617.69 593.78 608.15 C 591.01 604.09 587.95 599.65 583.04 598.10 C 577.75 596.47 572.39 598.54 567.35 600.02 C 563.97 594.19 559.74 588.78 554.38 584.66 C 552.49 583.30 550.45 582.15 548.74 580.57 Z"/>
</g>
</svg>